<svg width="48" height="48" viewBox="0 0 48 48" fill="none" xmlns="http://www.w3.org/2000/svg">
<path fill-rule="evenodd" clip-rule="evenodd" d="M27.8275 15.0282C27.8275 20.0148 23.786 24.0564 18.7993 24.0564C13.8127 24.0564 9.77114 20.0148 9.77114 15.0282C9.77114 10.0415 13.8127 6 18.7993 6C23.786 6 27.8275 10.0415 27.8275 15.0282ZM23.8118 26.3719C22.2796 27.055 20.5828 27.4419 18.7993 27.4419C16.9655 27.4419 15.2304 27.0328 13.6575 26.3134H12.4796C7.24607 26.3134 3 30.5595 3 35.793V38.7272C3 40.5963 4.51645 42.1127 6.38557 42.1127H31.2131C32.2299 42.1127 33.1424 41.6639 33.7631 40.9536C27.9206 40.5261 23.3134 35.6505 23.3134 29.6989C23.3134 28.5409 23.4878 27.4236 23.8118 26.3719Z" fill="black"/>
<path d="M36 19C34.0222 19 32.0888 19.5865 30.4443 20.6853C28.7998 21.7841 27.5181 23.3459 26.7612 25.1732C26.0043 27.0004 25.8063 29.0111 26.1922 30.9509C26.578 32.8907 27.5304 34.6725 28.9289 36.0711C30.3275 37.4696 32.1093 38.422 34.0491 38.8078C35.9889 39.1937 37.9996 38.9957 39.8268 38.2388C41.6541 37.4819 43.2159 36.2002 44.3147 34.5557C45.4135 32.9112 46 30.9778 46 29C46 26.3478 44.9464 23.8043 43.0711 21.9289C41.1957 20.0536 38.6522 19 36 19V19ZM36.0375 30.05C35.9319 30.0508 35.8272 30.0307 35.7294 29.9909C35.6317 29.9511 35.5427 29.8923 35.4678 29.8179C35.3928 29.7435 35.3333 29.6551 35.2927 29.5576C35.2521 29.4601 35.2313 29.3556 35.2313 29.25V23.1562C35.2313 22.9424 35.3162 22.7373 35.4674 22.5861C35.6186 22.4349 35.8237 22.35 36.0375 22.35C36.2513 22.35 36.4564 22.4349 36.6076 22.5861C36.7588 22.7373 36.8438 22.9424 36.8438 23.1562V29.25C36.8438 29.3556 36.8229 29.4601 36.7823 29.5576C36.7417 29.6551 36.6822 29.7435 36.6072 29.8179C36.5323 29.8923 36.4434 29.9511 36.3456 29.9909C36.2478 30.0307 36.1431 30.0508 36.0375 30.05V30.05ZM36 35.1187C34.6836 35.1343 33.3967 34.7288 32.3271 33.9613C31.2575 33.1939 30.4611 32.1047 30.0543 30.8526C29.6474 29.6006 29.6513 28.2513 30.0654 27.0017C30.4795 25.7521 31.2822 24.6675 32.3563 23.9062C32.5433 23.7729 32.7753 23.7185 33.0022 23.7547C33.229 23.791 33.4325 23.915 33.5688 24.1C33.6352 24.1914 33.683 24.295 33.7093 24.4049C33.7355 24.5148 33.7398 24.6288 33.7218 24.7403C33.7037 24.8519 33.6638 24.9588 33.6043 25.0548C33.5448 25.1509 33.4669 25.2342 33.375 25.3C32.7572 25.7537 32.2659 26.3581 31.948 27.0555C31.6301 27.753 31.4961 28.5202 31.5588 29.2842C31.6215 30.0481 31.8789 30.7832 32.3064 31.4194C32.7338 32.0557 33.3171 32.5718 34.0006 32.9187C34.6841 33.2655 35.4451 33.4315 36.211 33.4008C36.9769 33.3701 37.7221 33.1437 38.3757 32.7433C39.0293 32.3428 39.5694 31.7817 39.9445 31.1133C40.3197 30.4449 40.5174 29.6915 40.5188 28.925C40.5167 28.2188 40.3453 27.5233 40.0191 26.897C39.6928 26.2706 39.2212 25.7316 38.6438 25.325C38.4659 25.1847 38.351 24.9796 38.324 24.7547C38.2971 24.5298 38.3604 24.3034 38.5 24.125C38.6381 23.942 38.8425 23.8204 39.0692 23.7865C39.296 23.7526 39.5269 23.8091 39.7125 23.9437C40.7753 24.7137 41.5652 25.8023 41.9675 27.0515C42.3698 28.3008 42.3636 29.6457 41.9499 30.8912C41.5361 32.1367 40.7363 33.218 39.6664 33.9781C38.5965 34.7383 37.3123 35.1378 36 35.1187Z" fill="black"/>
</svg>
