<svg width="48" height="48" viewBox="0 0 48 48" fill="none" xmlns="http://www.w3.org/2000/svg">
<path d="M36.4138 17.542L38.7851 19.2718L41.7206 19.2664L42.622 22.0597L45.0001 23.7804L44.0878 26.5701L45.0001 29.3598L42.622 31.0806L41.7206 33.8739L38.7851 33.8685L36.4138 35.5983L34.0426 33.8685L31.1071 33.8739L30.2056 31.0806L27.8276 29.3598L28.7399 26.5701L27.8276 23.7804L30.2056 22.0597L31.1071 19.2664L34.0426 19.2718L36.4138 17.542Z" fill="black" stroke="black" stroke-width="4" stroke-linecap="round" stroke-linejoin="round"/>
<path d="M33.2544 26.5705L35.5114 28.8275L40.0255 24.3135" stroke="white" stroke-width="2" stroke-linecap="round" stroke-linejoin="round"/>
<path fill-rule="evenodd" clip-rule="evenodd" d="M27.8274 13.0281C27.8274 18.0148 23.7859 22.0563 18.7992 22.0563C13.8126 22.0563 9.7711 18.0148 9.7711 13.0281C9.7711 8.0415 13.8126 4 18.7992 4C23.7859 4 27.8274 8.0415 27.8274 13.0281ZM23.8117 24.3719C22.2795 25.0549 20.5827 25.4418 18.7992 25.4418C16.9654 25.4418 15.2303 25.0327 13.6574 24.3133H12.4795C7.24605 24.3133 3 28.5594 3 33.7929V36.727C3 38.5961 4.51645 40.1125 6.38555 40.1125H31.2129C32.2299 40.1125 33.1424 39.6637 33.7631 38.9533C27.9206 38.5258 23.3133 33.6502 23.3133 27.6986C23.3133 26.5407 23.4877 25.4235 23.8117 24.3719Z" fill="black"/>
</svg>
