<svg width="48" height="48" viewBox="0 0 48 48" fill="none" xmlns="http://www.w3.org/2000/svg">
<g clip-path="url(#clip0)">
<path d="M24 0C17.6348 0 11.5303 2.52856 7.02944 7.02944C2.52856 11.5303 0 17.6348 0 24C0 30.3652 2.52856 36.4697 7.02944 40.9706C11.5303 45.4714 17.6348 48 24 48C30.3652 48 36.4697 45.4714 40.9706 40.9706C45.4714 36.4697 48 30.3652 48 24C48 17.6348 45.4714 11.5303 40.9706 7.02944C36.4697 2.52856 30.3652 0 24 0V0ZM24 43.5C18.8283 43.5 13.8684 41.4455 10.2114 37.7886C6.55446 34.1316 4.5 29.1717 4.5 24C4.5 18.8283 6.55446 13.8684 10.2114 10.2114C13.8684 6.55446 18.8283 4.5 24 4.5C29.1717 4.5 34.1316 6.55446 37.7886 10.2114C41.4455 13.8684 43.5 18.8283 43.5 24C43.5 29.1717 41.4455 34.1316 37.7886 37.7886C34.1316 41.4455 29.1717 43.5 24 43.5V43.5Z" fill="black"/>
<path d="M31.5 12L24 19.5L16.5 12L12 16.5L19.5 24L12 31.5L16.5 36L24 28.5L31.5 36L36 31.5L28.5 24L36 16.5L31.5 12Z" fill="black"/>
</g>
<defs>
<clipPath id="clip0">
<rect width="48" height="48" fill="white"/>
</clipPath>
</defs>
</svg>
