<svg width="48" height="48" viewBox="0 0 48 48" fill="none" xmlns="http://www.w3.org/2000/svg">
<path d="M36.4136 19.2886L38.7849 21.0184L41.7204 21.013L42.6219 23.8063L44.9999 25.527L44.0876 28.3168L44.9999 31.1065L42.6219 32.8272L41.7204 35.6206L38.7849 35.6151L36.4136 37.3449L34.0424 35.6151L31.1069 35.6206L30.2054 32.8272L27.8274 31.1065L28.7397 28.3168L27.8274 25.527L30.2054 23.8063L31.1069 21.013L34.0424 21.0184L36.4136 19.2886Z" fill="black" stroke="black" stroke-width="4" stroke-linecap="round" stroke-linejoin="round"/>
<line x1="32.9585" y1="24.7674" x2="39.1845" y2="31.7716" stroke="white" stroke-width="1.5" stroke-linecap="round"/>
<line x1="39.6625" y1="25.432" x2="32.9566" y2="31.1129" stroke="white" stroke-width="1.5" stroke-linecap="round"/>
<path fill-rule="evenodd" clip-rule="evenodd" d="M27.8275 15.0282C27.8275 20.0148 23.786 24.0564 18.7993 24.0564C13.8127 24.0564 9.77114 20.0148 9.77114 15.0282C9.77114 10.0415 13.8127 6 18.7993 6C23.786 6 27.8275 10.0415 27.8275 15.0282ZM23.8118 26.3719C22.2796 27.055 20.5828 27.4419 18.7993 27.4419C16.9655 27.4419 15.2304 27.0328 13.6575 26.3134H12.4796C7.24607 26.3134 3 30.5595 3 35.793V38.7272C3 40.5963 4.51645 42.1127 6.38557 42.1127H31.2131C32.2299 42.1127 33.1424 41.6639 33.7631 40.9536C27.9206 40.5261 23.3134 35.6505 23.3134 29.6989C23.3134 28.5409 23.4878 27.4236 23.8118 26.3719Z" fill="black"/>
</svg>
